<?xml version="1.0" encoding="UTF-8"?>
<svg version="1.1" viewBox="0 0 2048 2048" width="512" height="512" xmlns="http://www.w3.org/2000/svg">
<path transform="translate(580,143)" d="m0 0h891l9 2 5 5 3 5v10l-12 37-14 41-4 13 3 21 13 68 10 54 8 48 8 55 7 60 5 60 3 49 2 63v66l-2 68-4 63-5 53-7 58-5 34-8 49-8 44-9 47-9 49-2 10 1 9 13 38 12 36 50 2 26 3 28 6 20 6 22 8 29 14 17 10 19 13 16 13 20 18 3 3 58 1 8 2 5 4 3 6v10l-5 8-6 3-64 1-2 4-8 7-13 12-13 10-17 12-24 14-25 12-18 7-1 2 10 3 21 9 23 12 19 12 19 14 14 12 16 15 58 1 8 2 5 4 3 6v10l-5 8-6 3-63 1-16 16-11 9-10 8-17 12-19 11-21 11-27 11-1 2 10 3 21 9 23 12 19 12 19 14 14 12 16 15 57 1 9 2 5 4 3 6v10l-4 7-7 4-64 1-2 4-8 7-13 12-13 10-17 12-17 10-23 12-27 11-31 9-20 4-23 3-14 1h-1e3l-25-2-27-5-26-7-20-7-21-9-19-10-21-13-12-9-10-8-11-9-10-10-8-6-61-1-6-3-4-5-1-3v-10l4-7 5-4 7-1 58-1 11-11 8-7 13-11 17-12 19-12 18-10 23-10 14-5-22-9-13-6-23-12-17-11-16-12-11-9-10-9-11-10-2-1-61-1-6-3-4-5-1-3v-10l4-7 5-4 7-1 58-1 11-11 8-7 13-11 17-12 19-12 18-10 23-10 14-5-22-9-13-6-23-12-17-11-16-12-16-13-10-10-8-6-61-1-6-3-4-5-1-3v-11l4-7 5-3 6-1 59-1 12-12 8-7 12-10 18-13 21-13 19-10 29-12 26-8 28-6 25-3 19-1h33l3-10 23-69-3-20-12-63-12-64-10-61-8-59-6-56-4-49-3-56-1-27v-118l2-46 3-48 4-46 7-61 7-49 9-54 14-75 12-64 1-6-5-17-24-72-1-4v-11l5-7 5-3zm19 33 1 6 13 38 6 18 1 1h808l4-10 13-40 4-11v-2zm422 256-9 5-9 9-5 6-3 2v2h-2l-7 8-9 10-9 15-6 14-4 16-1 7v25l2 11-16-1-14-1h-34l-7 2-5 5-2 4-1 8v32l2 19 4 16 7 16 7 12 9 10 2 4h-14l-9 2-5 5-2 4-1 20v19l2 20 4 16 7 16 7 12 9 10 2 4h-14l-9 2-5 5-2 4-1 20v19l2 20 4 16 7 16 9 14 9 10 5 5 9 8 15 9 15 6 17 4 9 1 26 1 1 2v76l2 10 5 5 5 2h8l7-4 3-4 1-3 1-84 28-1 18-3 15-5 14-7 14-10 13-13v-2h2l10-15 6-13 4-12 3-18v-50l-4-6-5-4-5-1-16-1 7-8 7-10 8-15 5-15 3-18v-50l-4-6-5-4-5-1-16-1 7-8 7-10 8-15 5-15 3-18v-50l-4-6-5-4-4-1h-32l-26 2h-7l2-11v-24l-4-20-5-13-7-14-10-13-14-15-14-14-7-5zm-401 864-4 10-13 40-4 11v2h850l-12-37-8-24-2-2zm-90 96-26 2-24 4-23 6-28 10-21 10-19 11-20 14-13 11-11 9-1 4 13 12 14 11 16 11 15 9 19 10 22 9 26 8 25 5 27 3h1008l25-3 24-5 21-6 20-8 25-12 17-10 14-10 14-11 10-9 5-4-2-4-12-11-17-13-18-12-18-10-21-10-22-8-22-6-21-4-19-2-18-1zm1 192-27 2-24 4-23 6-23 8-24 11-21 12-20 14-13 11-11 9-1 4 14 13 13 10 16 11 15 9 19 10 25 10 27 8 21 4 27 3h1008l25-3 24-5 21-6 25-10 22-11 18-11 19-14 15-13 6-5-2-4-12-11-14-11-24-16-27-14-19-8-26-8-22-5-27-3-19-1zm0 192-27 2-24 4-23 6-28 10-25 12-18 11-17 12-13 11-11 9-1 4 7 7 11 9 13 10 15 10 21 12 19 9 25 9 22 6 24 4 21 2h1007l25-3 24-5 21-6 20-8 25-12 20-12 19-14 15-13 6-5-2-4-12-11-14-11-24-16-27-14-19-8-26-8-22-5-27-3-19-1z"/>
<path transform="translate(1113,847)" d="m0 0h22l2 3v11l-1 18-4 16-8 15-9 11-9 8-13 8-14 5-11 2-17 1h-9l-3-2v-19l2-16 4-13 8-15 12-13 10-8 14-7 9-3z"/>
<path transform="translate(913,847)" d="m0 0h21l15 2 12 4 13 7 11 9 9 10 9 16 4 13 1 6 1 21-1 9h-29l-14-3-12-5-11-7-11-10-10-14-6-13-3-12-1-9v-22z"/>
<path transform="translate(1114,719)" d="m0 0h21l2 3-1 28-4 16-8 16-9 11-9 8-10 6-11 5-10 3-8 1-24 1-4-2v-19l2-17 4-12 7-13 8-10 8-8 14-9 16-6z"/>
<path transform="translate(1115,591)" d="m0 0h20l2 3v11l-1 17-4 16-8 16-11 13-13 10-15 7-10 3-8 1-24 1-4-2v-18l2-18 4-12 7-13 8-10 8-8 14-9 13-5 9-2z"/>
<path transform="translate(1022,471)" d="m0 0 5 1 13 13 10 14 6 12 4 16v23l-4 16-9 17-7 9h-2l-2 4-4 2-1 3-6 5-4-2-16-16-9-14-6-14-2-9-1-15 2-15 5-15 7-12 8-10z"/>
<path transform="translate(913,719)" d="m0 0h20l16 2 12 4 13 7 11 9 8 9 8 13 5 13 2 10 1 28-1 2h-29l-14-3-14-6-10-7-10-9-8-11-8-16-3-12-1-10v-21z"/>
<path transform="translate(913,591)" d="m0 0h19l17 2 12 4 13 7 13 11 9 11 8 16 4 16 1 28-1 2h-29l-14-3-14-6-10-7-10-9-8-11-8-16-3-12-1-10v-19z"/>
<path transform="translate(1009,847)" d="m0 0h29l2 1-2 4-5 5-8 11-4-2-6-9-7-7z"/>
<path transform="translate(1009,719)" d="m0 0h29l2 1-2 4-5 5-8 11-4-2-6-9-7-7z"/>
</svg>
